# xmcd CD database file
#
# Track frame offsets:
#	150
#	14542
#	28016
#	48543
#	59735
#	82132
#	93364
#	115209
#	131974
#	155842
#	170103
#	191307
#	204004
#
# Disc length: 2919 seconds
#
# Revision: 0
# Processed by: cddbd v1.5.2PL0 Copyright (c) Steve Scherf et al.
# Submitted via: CDex 1.51
#
DISCID=bb0b650d
DTITLE=Alvin Schönberger - The Fingerstyle File
DYEAR=2013
DGENRE=Blues
TTITLE0=Saturday Night Shuffle
TTITLE1=Hesitation Blues
TTITLE2=Wine Spo-Dee O-Dee
TTITLE3=Railroad Bill
TTITLE4=My Starter Won`t Start
TTITLE5=Fishin' Blues
TTITLE6=Bad Boy
TTITLE7=Deep River Blues
TTITLE8=Sugar Mama Blues
TTITLE9=Stagolee
TTITLE10=Low Down Dirty Shame
TTITLE11=When I First Met The Blues
TTITLE12=My Creole Belle - Ain`t Nobody`s Business
EXTD=YEAR: 2013
EXTT0=
EXTT1=
EXTT2=
EXTT3=
EXTT4=
EXTT5=
EXTT6=
EXTT7=
EXTT8=
EXTT9=
EXTT10=
EXTT11=
EXTT12=
PLAYORDER=
